<svg xmlns="http://www.w3.org/2000/svg" width="512" height="512" viewBox="0 0 512 512"><g transform="translate(-471 -367)"><rect width="512" height="512" transform="translate(471 367)" fill="#63b554"/><g transform="translate(577.589 435.189)"><g transform="translate(0 0)"><path d="M68.3,42.689A25.642,25.642,0,0,0,42.689,68.3V230.52A25.642,25.642,0,0,0,68.3,256.133H230.52a25.642,25.642,0,0,0,25.613-25.613V68.3A25.642,25.642,0,0,0,230.52,42.689H68.3M68.3,0H230.52a68.3,68.3,0,0,1,68.3,68.3V230.52a68.3,68.3,0,0,1-68.3,68.3H68.3A68.3,68.3,0,0,1,0,230.52V68.3A68.3,68.3,0,0,1,68.3,0Z" transform="translate(0 76.84)" fill="#fff"/><path d="M57.63,42.689a14.941,14.941,0,1,0,0,29.882H74.705a14.941,14.941,0,0,0,0-29.882H57.63M57.63,0H74.705a57.63,57.63,0,1,1,0,115.26H57.63A57.63,57.63,0,0,1,57.63,0Z" transform="translate(85.378)" fill="#fff"/><rect width="51.043" height="127.608" rx="10" transform="translate(123.962 162.244)" fill="#ffa700"/></g></g></g></svg>